<?xml version="1.0" encoding="UTF-8" standalone="no"?>
<svg width="45px" height="45px" viewBox="0 0 45 45" version="1.1" xmlns="http://www.w3.org/2000/svg" xmlns:xlink="http://www.w3.org/1999/xlink">
    <!-- Generator: sketchtool 3.7 (28169) - http://www.bohemiancoding.com/sketch -->
    <title>e85b</title>
    <desc>Created with sketchtool.</desc>
    <defs></defs>
    <g id="Page-1" stroke="none" stroke-width="1" fill="none" fill-rule="evenodd">
        <g id="Remcold-Home" transform="translate(-303.000000, -756.000000)" fill="#4990E2">
            <g id="Group-4" transform="translate(277.000000, 730.000000)">
                <g id="e85b" transform="translate(26.000000, 26.000000)">
                    <path d="M44.9442101,26.8102225 C44.8497838,27.6555401 44.3731342,29.0607297 42.3632111,29.831862 C42.8488514,30.348947 43.1973248,31.1043569 43.246751,31.8530352 C43.2962234,32.6556582 43.0556394,34.0922925 41.009753,35.0567955 C41.4593841,35.4502227 41.9135337,36.1291879 41.9135337,37.3882198 C41.9135337,37.988481 41.756172,38.5640292 41.4414026,39.1058735 C41.1266331,39.6409401 40.6072889,40.052395 40.1441485,40.3941368 C39.4898965,40.8842495 38.2511055,41.3878714 37.5519456,41.5385016 L37.441797,41.5610016 C34.2200553,42.2174667 30.2518947,43.0246081 24.3817461,43.0246081 C24.0849581,43.0246081 23.7836979,43.0223489 23.4757061,43.0178765 C19.871787,42.9639319 17.8416232,41.9094749 16.8703888,41.4013806 C16.7107679,41.3182043 16.5938417,41.2552228 16.5129247,41.2260373 C16.573647,41.2485373 16.7399995,41.2665189 16.9153427,41.1855558 C16.5466285,41.3069543 16.1127197,41.1406019 15.9530988,40.7876101 C15.7889594,40.4188959 15.9058857,40.0007095 16.265609,39.8186347 C16.6882678,39.6028099 17.0615004,39.7894031 17.5695947,40.0547002 C18.4396715,40.5065906 20.2517514,41.4508529 23.5004657,41.5025845 C29.6876427,41.5880199 33.8266285,40.7494338 37.140538,40.0704686 L37.243955,40.0502279 C37.7587808,39.9400793 38.7862655,39.5151613 39.2426281,39.1756786 C39.4899437,38.9913446 39.9508248,38.6518159 40.1329457,38.3370926 C40.3105482,38.0335731 40.4005021,37.7143313 40.4005021,37.3838395 C40.4005021,36.3743826 40.0205379,36.1652893 39.6563423,35.9561961 C39.4247951,35.8258068 38.8177562,35.4818057 38.9751179,34.7871182 C39.1167573,34.1171438 39.6293699,33.9552637 39.8721671,33.8765597 C39.9148617,33.8653097 39.9576025,33.8473282 40.0115472,33.8293466 C40.823161,33.5145772 41.7809324,32.939029 41.7381917,31.9700536 C41.7067009,31.2573384 41.1738935,30.7132811 41.0007634,30.6638088 C40.0924642,30.4300024 39.9688064,29.9129174 39.9755841,29.6206018 C39.9845748,29.2564061 40.2318904,28.8179788 40.9085964,28.6740803 C41.9877664,28.451524 43.2962244,27.9209297 43.4378637,26.6393979 C43.5525307,25.6007094 42.855584,24.4990853 42.3339805,24.2652329 C41.9270441,24.0876305 41.477413,23.9729634 41.1176896,23.887528 C40.5421414,23.7481478 39.9463525,23.6019901 39.9036579,22.958988 C39.858704,22.3227175 40.4927153,22.0686704 40.6995492,21.9854942 L40.8906609,21.9113087 C41.8574232,21.5403354 42.6555277,21.1469081 42.6555277,20.0722564 C42.6555277,19.5483937 42.5318699,19.1752073 42.2733043,18.9346232 C41.8708863,18.5523999 41.1896619,18.4512421 40.8479201,18.4512421 L34.1369262,18.4512421 C33.4736834,18.4512421 32.4282634,17.9611294 32.2686424,17.0775432 C32.034836,15.8005299 31.7155942,14.0536447 33.1004969,11.304034 C33.4332479,10.6295412 33.491711,8.76351652 32.929626,6.63666704 C32.4349948,4.7436241 31.5627049,3.07544275 30.4678124,1.93559643 C30.3036731,1.8186702 29.7349026,1.44774295 29.1885399,1.54216918 C28.891752,1.59390074 28.6265009,1.77823475 28.3836576,2.10872656 L28.3836576,7.22798364 C28.3836576,7.30890065 28.3791392,7.41909532 28.3499538,7.5427531 C28.329713,7.80805028 28.1071566,9.69883409 27.331506,11.0477735 C26.8818748,11.8391464 24.9641186,14.9304988 23.3498819,17.4125531 C22.077387,19.3662724 21.2117825,20.5983318 20.7801329,21.0749352 C19.7189443,22.2462723 17.9540776,22.4418563 16.6613418,22.4058932 C16.2431554,22.392384 15.9149228,22.0439107 15.9261728,21.6235111 C15.9396821,21.2053246 16.3128685,20.888342 16.708555,20.8928143 C17.5066595,20.9265182 18.9500714,20.8478605 19.6537496,20.0632191 C19.8695744,19.8248943 20.4676225,19.0604937 22.0773407,16.58743 C23.7927352,13.9547457 25.6273152,10.975801 26.01627,10.2945766 C26.5310959,9.39978659 26.7896614,7.98786553 26.8615876,7.29317799 L26.8683192,1.87939217 C26.8683192,1.73549361 26.9110138,1.59159504 26.9852454,1.46798336 C27.4978581,0.667619631 28.152064,0.190969995 28.9232424,0.0538491393 C30.112561,-0.155244098 31.1422587,0.546221066 31.4300558,0.766564303 C31.4592874,0.789064303 31.4862597,0.813777418 31.5109729,0.836277418 C32.8014493,2.16497623 33.8221562,4.08946385 34.3909729,6.25227653 C34.9957526,8.54100599 35.0182526,10.845458 34.4471768,11.9807859 C33.2893489,14.2807192 33.5366183,15.6207141 33.7524892,16.8055143 C33.78398,16.8190235 34.0222587,16.9404221 34.1324534,16.9404221 L40.8434473,16.9404221 C41.1986522,16.9404221 42.4307116,17.0011444 43.3052609,17.835212 C43.8785498,18.3658063 44.166347,19.1189569 44.166347,20.07221 C44.166347,21.4616311 43.3996871,22.2709856 42.6285549,22.7543668 C42.7342311,22.7948483 42.8399074,22.8352838 42.9433244,22.8824969 C44.0651892,23.388332 45.1331092,25.0812725 44.9442567,26.8101761 L44.9442101,26.8102225 Z M14.9166701,19.0829954 C15.5889037,19.9418222 15.4337552,21.0861869 15.3663013,21.4459104 L15.3663013,42.4827194 C15.3663013,44.4544202 14.0353432,44.9804961 13.2484428,44.9804961 C13.2371928,44.9804961 13.2012296,44.9804961 13.1899796,44.9782368 L5.80002068,44.9827553 C2.22081483,44.9827553 1.27881175,42.0195791 1.27881175,40.4525556 C1.26756175,40.3603886 0.258104785,26.0165922 0.0422799898,22.3542108 C-0.0319054611,21.0547436 0.278345564,20.0250459 0.968560727,19.2943492 C1.85887835,18.3455685 3.09089162,18.2061884 3.74514377,18.2061884 C3.94971856,18.2061884 4.07337635,18.2196976 4.07337635,18.2196976 L12.8685251,18.2174384 C13.9971214,18.2174384 14.6041604,18.6895695 14.9166706,19.0829968 L14.9166701,19.0829954 Z M13.7250925,20.0182656 C13.569944,19.8294132 13.2844522,19.7327277 12.868525,19.7327277 L3.99245966,19.7327277 C3.90476499,19.7259962 3.83957032,19.7214777 3.74514409,19.7214777 C3.41691155,19.7214777 2.58952938,19.7799408 2.07244434,20.332989 C1.67901709,20.7489162 1.50588696,21.3986499 1.55761852,22.2664675 C1.77118409,25.9221183 2.77842795,40.2546648 2.78741872,40.3985635 C2.79415028,40.7582869 2.90208573,43.4651568 5.80006747,43.4651568 L13.2282485,43.4651568 L13.2484893,44.2228259 L13.2484893,43.4651568 C13.4755641,43.4651568 13.853269,43.3325082 13.853269,42.480413 L13.853269,21.3671597 C13.853269,21.3064374 13.8600006,21.2457612 13.875769,21.187298 C13.9207229,20.991714 13.990436,20.3531843 13.7251389,20.0182201 L13.7250925,20.0182656 Z" id="Shape"></path>
                </g>
            </g>
        </g>
    </g>
</svg>