<?xml version="1.0" encoding="UTF-8" standalone="no"?>
<svg width="28px" height="49px" viewBox="0 0 28 49" version="1.1" xmlns="http://www.w3.org/2000/svg" xmlns:xlink="http://www.w3.org/1999/xlink">
    <!-- Generator: sketchtool 3.7 (28169) - http://www.bohemiancoding.com/sketch -->
    <title>e827</title>
    <desc>Created with sketchtool.</desc>
    <defs></defs>
    <g id="Page-1" stroke="none" stroke-width="1" fill="none" fill-rule="evenodd">
        <g id="Remcold-Home" transform="translate(-1106.000000, -754.000000)" fill="#4990E2">
            <g id="Group-7" transform="translate(1071.000000, 730.000000)">
                <g id="e827" transform="translate(35.000000, 24.000000)">
                    <path d="M13.9772235,5.8337754 C12.4948074,5.8337754 11.1070191,6.39682356 10.0605958,7.42256024 C7.90546438,9.54015353 7.90546438,12.9870725 10.0605958,15.1095356 C11.1095228,16.1426524 12.4997637,16.7105704 13.9722162,16.7105704 L13.9796761,16.7105704 C15.4670994,16.6958604 16.8573403,16.1303522 17.8938004,15.1095356 C20.0489318,12.9894823 20.0489318,9.54256321 17.8938004,7.42256024 C16.8498806,6.39682356 15.4620924,5.8337754 13.9771726,5.8337754 L13.9772235,5.8337754 Z M16.8399158,14.0715984 C16.0800326,14.820706 15.060996,15.2344447 13.9672588,15.2442347 C12.8959012,15.2417747 11.881872,14.8280359 11.1145289,14.0715984 C9.53743401,12.5243832 9.53743401,10.0053011 11.1145289,8.45813648 C11.8794194,7.7090289 12.8934487,7.29529012 13.9772223,7.29529012 C15.0634997,7.29529012 16.0775289,7.71148889 16.8399158,8.45813648 C18.4145581,10.0053516 18.4145581,12.5244338 16.8399158,14.0715984 L16.8399158,14.0715984 Z M23.868429,4.01730976 C18.4170639,-1.33910325 9.5423919,-1.33910325 4.0885238,4.01730976 C-1.36284127,9.37372277 -1.36284127,18.0864842 4.0885238,23.4453077 C4.6665603,24.0132759 5.2570128,24.5028743 6.01193991,25.0267626 C6.16639976,25.1100023 6.31840706,25.200572 6.46540706,25.3131816 C7.72361874,26.2508087 8.44364789,27.6731141 8.44364789,29.2129993 L8.44364789,43.531844 C8.44364789,46.5283246 10.9251735,48.9641669 13.9747208,48.9641669 C15.3450347,48.9641669 16.6555675,48.4769783 17.6845166,47.5736413 L17.9062684,47.3655419 C18.8804436,46.4107949 19.4235822,45.1475889 19.4883707,43.7962231 L20.3055823,42.7729465 C20.6145021,42.4204076 20.6394364,41.8010797 20.6394364,41.6174301 L20.6394364,40.9686821 C20.6394364,40.7826227 20.6145021,40.1510449 20.3280131,39.8376657 L19.7699035,39.142428 L20.9209692,38.3369906 C20.9682831,38.3027006 21.0106407,38.2660008 21.0505459,38.224381 C21.3619692,37.871842 21.3869035,37.2500541 21.3869035,37.0639946 L21.3869035,36.4127866 C21.3869035,36.2316473 21.3619692,35.6049394 21.0505459,35.2548605 C21.0106918,35.2107805 20.9683342,35.1740808 20.9209692,35.1397908 L19.859575,34.3980132 L20.4126772,33.7786351 C20.7191443,33.4285562 20.7440276,32.8043083 20.7440276,32.6182488 L20.7440276,31.9695008 C20.7440276,31.7883615 20.7215969,31.1738533 20.4101735,30.8066545 L19.5157064,29.8053676 L19.5157064,29.2080295 C19.5157064,27.6632744 20.2357356,26.243379 21.4864874,25.3131318 C21.6509107,25.1931923 21.8178377,25.0879126 22.0794436,24.9214331 C22.7197647,24.4783245 23.3201808,23.9789361 23.8708305,23.4427979 C29.3172393,18.0863849 29.3172393,9.37121333 23.8683268,4.01721 L23.868429,4.01730976 Z M22.8169982,22.4049115 C22.3261807,22.8847199 21.7905019,23.3278286 21.2373996,23.7097374 C20.9732901,23.8786769 20.7839325,23.9986165 20.5921222,24.140596 C18.9602026,25.3573122 18.0233778,27.2031461 18.0233778,29.2081296 L18.0233778,29.998857 C18.0233778,30.0771767 18.0458085,30.1481665 18.0706917,30.2216163 C18.0906187,30.3538058 18.13548,30.4811255 18.2326625,30.5912751 L19.2193048,31.7002516 C19.2342756,31.7565815 19.251699,31.8594011 19.251699,31.9670907 L19.251699,32.6158386 C19.251699,32.7235784 19.2342756,32.823938 19.2193048,32.8826778 L18.2302099,33.9965743 C18.1305749,34.1067239 18.0857136,34.2438335 18.0682391,34.3784831 C18.0657355,34.3882731 18.0657355,34.398063 18.0632318,34.407853 C18.0582245,34.4617229 18.0507647,34.5155927 18.0582245,34.5670026 C18.068188,34.7897618 18.1628669,35.0027813 18.3596844,35.1398407 L19.8719909,36.1998673 C19.8844581,36.2586071 19.8919179,36.3320569 19.8919179,36.4055067 L19.8919179,37.0567147 C19.8919179,37.1301645 19.8844581,37.2060241 19.8719909,37.262354 L18.3596844,38.3223807 C18.1379326,38.4790702 18.0407501,38.7336594 18.0631807,38.9833787 C18.0282829,39.179228 18.0731442,39.3848674 18.2076771,39.5513469 L19.1121077,40.6848233 C19.1270785,40.7386932 19.1445019,40.8463827 19.1445019,40.9614524 L19.1445019,41.6102003 C19.1445019,41.72281 19.1270785,41.8305497 19.1121077,41.8868295 L18.2076771,43.0178458 C18.1678231,43.0692557 18.1478961,43.1255856 18.1229618,43.1794052 C18.1055384,43.2112352 18.0880639,43.2357352 18.0756479,43.272435 C18.0756479,43.277355 18.0731442,43.2822249 18.0731442,43.287145 C18.0457574,43.3605948 18.0233267,43.4413745 18.0233267,43.5246143 C18.0233267,44.587101 17.607261,45.5810077 16.8622975,46.3080754 L16.6704362,46.4868049 C15.9329326,47.1380129 14.9737282,47.4929617 13.9721662,47.4929617 C11.7422831,47.4929617 9.93347286,45.7131973 9.93347286,43.5246144 L9.93347286,29.2057697 C9.93347286,27.2057062 8.99669914,25.357362 7.37719554,24.1455659 C7.18037802,23.9962564 6.96112989,23.8616068 6.80666999,23.783237 C6.18877943,23.3523784 5.66061154,22.9141898 5.13985237,22.4049614 C0.271480208,17.6189265 0.271480208,9.83405161 5.13985237,5.05047651 C10.0156846,0.26690182 17.943568,0.264441629 22.8169475,5.05047651 C27.6828162,9.83651145 27.6828162,17.6189763 22.8169475,22.4049614 L22.8169982,22.4049115 Z" id="Shape"></path>
                </g>
            </g>
        </g>
    </g>
</svg>